<?xml version="1.0" standalone="no"?>
<!DOCTYPE svg PUBLIC "-//W3C//DTD SVG 20010904//EN"
 "http://www.w3.org/TR/2001/REC-SVG-20010904/DTD/svg10.dtd">
<svg version="1.0" xmlns="http://www.w3.org/2000/svg"
 width="256.000000pt" height="256.000000pt" viewBox="0 0 256.000000 256.000000"
 preserveAspectRatio="xMidYMid meet">
<metadata>
Created by potrace 1.14, written by Peter Selinger 2001-2017
</metadata>
<g transform="translate(0.000000,256.000000) scale(0.100000,-0.100000)"
fill="#000000" stroke="none">
<path d="M386 2411 c-87 -45 -208 -132 -266 -192 -85 -87 -120 -213 -116 -409
4 -159 26 -284 80 -453 59 -184 148 -309 406 -572 103 -104 211 -217 241 -250
130 -146 286 -293 356 -334 83 -49 191 -88 263 -95 l50 -4 19 41 c24 54 65 94
165 164 112 78 174 144 220 237 49 96 102 152 186 197 36 19 86 55 111 81 67
68 112 148 217 379 16 37 47 93 69 125 48 73 62 101 108 234 50 143 63 214 61
323 -5 240 -162 447 -382 501 -120 30 -304 38 -384 16 -124 -33 -197 -93 -375
-310 -38 -47 -86 -102 -108 -123 l-38 -37 -42 29 c-49 33 -103 90 -168 176
-52 68 -109 161 -109 175 0 6 -8 10 -17 11 -41 1 -75 12 -204 64 -95 38 -157
57 -200 61 -61 6 -68 4 -143 -35z"/>
</g>
</svg>
